<?xml version="1.0" encoding="UTF-8" standalone="no"?><!DOCTYPE svg PUBLIC "-//W3C//DTD SVG 1.1//EN" "http://www.w3.org/Graphics/SVG/1.1/DTD/svg11.dtd"><svg width="100%" height="100%" viewBox="0 0 2883 900" version="1.1" xmlns="http://www.w3.org/2000/svg" xmlns:xlink="http://www.w3.org/1999/xlink" xml:space="preserve" xmlns:serif="http://www.serif.com/" style="fill-rule:evenodd;clip-rule:evenodd;stroke-linecap:round;stroke-linejoin:round;stroke-miterlimit:10;"><rect id="Artboard1" x="0" y="0" width="2882.073" height="899.142" style="fill:none;"/><g id="Objects"><g><g><g><g><rect x="2773.388" y="436.436" width="33.333" height="337.5" style="fill:#fff;stroke:#505050;stroke-width:16.67px;"/><path d="M2762.209,434.536c0,0 -43.229,-9.208 -34.008,-153.092c9.221,-143.875 78.521,-175.217 78.521,-175.217l0,328.346l-44.512,-0.037Z" style="fill:#fff;fill-rule:nonzero;stroke:#505050;stroke-width:16.67px;"/></g><path d="M212.513,110.215l-32.071,148.404l-26.562,-148.404l-26.562,148.404l-32.075,-148.404c-14.892,108.096 -29.325,199.362 -11.962,240.017c16.021,37.454 44.275,48.725 60.942,51.996l0,371.708l33.333,0l0,-372.838c16.667,-4.467 36.763,-16.921 51.283,-50.867c17.375,-40.654 -1.433,-131.917 -16.325,-240.017Z" style="fill:#fff;fill-rule:nonzero;stroke:#505050;stroke-width:16.67px;"/></g><rect x="321.893" y="325.952" width="2303.521" height="215.396" style="fill:none;"/><g><g transform="matrix(263.750417,0,0,263.750417,2491.484355,517.969942)"></g><text x="462.255px" y="517.97px" style="font-family:'ArialMT', 'Arial', sans-serif;font-size:263.75px;fill:#505050;">B<tspan x="653.999px 743.102px 964.081px 1048.419px 1240.164px 1446.461px 1681.992px 1917.523px 2109.268px 2315.565px " y="517.97px 517.97px 517.97px 517.97px 517.97px 517.97px 517.97px 517.97px 517.97px 517.97px ">IG YUMMERS</tspan></text></g><g><g><path d="M352.555,773.936l487.5,0" style="fill:none;fill-rule:nonzero;stroke:#505050;stroke-width:16.67px;stroke-linejoin:miter;"/><path d="M2119.222,773.936l487.5,0" style="fill:none;fill-rule:nonzero;stroke:#505050;stroke-width:16.67px;stroke-linejoin:miter;"/></g><rect x="899.838" y="718.99" width="1173.688" height="109.896" style="fill:none;"/><g transform="matrix(145.0625,0,0,145.0625,2001.328137,825.857185)"></g><text x="963.536px" y="825.857px" style="font-family:'ArialMT', 'Arial', sans-serif;font-size:145.062px;fill:#505050;">R<tspan x="1075.549px 1179.558px 1283.566px 1368.663px 1472.672px 1584.684px 1696.697px 1800.706px 1912.718px " y="825.857px 825.857px 825.857px 825.857px 825.857px 825.857px 825.857px 825.857px 825.857px ">ESTAURANT</tspan></text></g><g><rect x="1142.397" y="70.257" width="617.458" height="74.513" style="fill:none;"/><g transform="matrix(95.833333,0,0,95.833333,1681.853944,141.812566)"></g><text x="1216.654px" y="141.813px" style="font-family:'ArialMT', 'Arial', sans-serif;font-size:95.833px;fill:#505050;">E<tspan x="1283.449px 1350.244px 1401.036px 1430.537px 1460.037px 1516.21px 1572.383px 1628.556px " y="141.813px 141.813px 141.813px 141.813px 141.813px 141.813px 141.813px 141.813px ">ST. 1285</tspan></text><g><path d="M352.555,107.269l737.5,0" style="fill:none;fill-rule:nonzero;stroke:#505050;stroke-width:16.67px;stroke-linejoin:miter;"/><path d="M1819.222,107.269l787.5,0" style="fill:none;fill-rule:nonzero;stroke:#505050;stroke-width:16.67px;stroke-linejoin:miter;"/></g></g></g></g></g></svg>